<svg xmlns="http://www.w3.org/2000/svg" xmlns:xlink="http://www.w3.org/1999/xlink" width="44.137" height="35.5" viewBox="0 0 44.137 35.5"><defs><style>.a{fill:url(#a);}.b{fill:#198ab3;}.c{fill:#9cebff;}.d{fill:#32bedd;}</style><linearGradient id="a" x1="0.5" y1="1" x2="0.5" gradientUnits="objectBoundingBox"><stop offset="0" stop-color="#32bedd"/><stop offset="0.175" stop-color="#32caea"/><stop offset="0.41" stop-color="#32d2f2"/><stop offset="0.775" stop-color="#32d4f5"/></linearGradient></defs><g transform="translate(-1 -2.563)"><g transform="translate(1 2.563)"><path class="a" d="M1,5.973H45.137V30.579a1.476,1.476,0,0,1-1.476,1.476H2.476A1.476,1.476,0,0,1,1,30.579Z" transform="translate(-1 3.434)"/><path class="b" d="M2.484,2.563H43.653a1.476,1.476,0,0,1,1.484,1.481V11.97H1V4.044A1.476,1.476,0,0,1,2.484,2.563Z" transform="translate(-1 -2.563)"/><path class="c" d="M1,5.973H12.569V32.055H2.479A1.468,1.468,0,0,1,1,30.585Z" transform="translate(-1 3.434)"/><path class="d" d="M5.194,13.356H37.762v4.259a1.468,1.468,0,0,1-1.468,1.468H5.194Z" transform="translate(6.375 16.417)"/></g></g></svg>