<svg xmlns="http://www.w3.org/2000/svg" width="118.156" height="30.467" viewBox="0 0 118.156 30.467"><defs><style>.a{fill:#4a2e62;}</style></defs><g transform="translate(-25.071 -76.554)"><g transform="translate(25.071 76.554)"><path class="a" d="M55.4,90a3.977,3.977,0,0,1-1.3,1.185,1.621,1.621,0,0,1-.79.226,1.512,1.512,0,0,1-.7-.165,1.93,1.93,0,0,1-.509-.378,1.455,1.455,0,0,1-.462-.985A.967.967,0,0,1,52,89.067,5.283,5.283,0,0,0,53.73,87.15a1.4,1.4,0,0,0,.145-.589c0-.3-.055-.3-.239-.3a3.167,3.167,0,0,0-2.143,1.207,10.086,10.086,0,0,0-1.94,3.023,9.336,9.336,0,0,0-.867,3.407l-.009.318c0,1.346.089,1.97.637,2.342a.288.288,0,0,0,.154.028,6.415,6.415,0,0,0,2.794-1.453.894.894,0,0,1,.562-.215.8.8,0,0,1,.683.4,1.466,1.466,0,0,1,.247.832,1.65,1.65,0,0,1-.239,1,2.722,2.722,0,0,1-.56.535,4.589,4.589,0,0,1-.886.518,5.621,5.621,0,0,1-2.334.539,5.028,5.028,0,0,1-1.871-.3,3.436,3.436,0,0,1-1.267-.881,4.574,4.574,0,0,1-1.043-3.149l.009-.255a12.19,12.19,0,0,1,1.35-5.176,10.9,10.9,0,0,1,2.923-3.618,5.827,5.827,0,0,1,3.561-1.41c.076,0,.143.017.216.021a15.561,15.561,0,0,0-27.8,2.585,3.786,3.786,0,0,1,1.2-.412l.037,0a3.655,3.655,0,0,1,.464-.031,2.115,2.115,0,0,1,1.938,1.043,3.21,3.21,0,0,1,.417,1.285,8.512,8.512,0,0,1,.049,1.4c-.021.464-.066.953-.136,1.451s-.138.947-.2,1.38a11.263,11.263,0,0,0-.226,1.782.659.659,0,0,0,.041.179c.118-.021.538-.181,1.391-1.375a18.751,18.751,0,0,0,2.01-3.811c.12-.452.264-1.027.427-1.707q.253-1.048.327-1.334a1.653,1.653,0,0,1,.291-.616,1.585,1.585,0,0,1,.385-.355,1.621,1.621,0,0,1,.729-.288,1.119,1.119,0,0,1,.143-.009.692.692,0,0,1,.675.422,1.378,1.378,0,0,1,.08.679,4.782,4.782,0,0,1-.353,1.314,23.7,23.7,0,0,0-.044,5.3A3.679,3.679,0,0,0,35.8,94.3c.3-.073.856-.414,1.636-1.748a12.706,12.706,0,0,0,1.454-3.8,7.379,7.379,0,0,0,.188-2.358,2.321,2.321,0,0,0-.466-1.284l-.265-.292.261-.295a1.342,1.342,0,0,1,.816-.494,1.407,1.407,0,0,1,.178-.01,1.127,1.127,0,0,1,.548.135,1.448,1.448,0,0,1,.479.432,2.619,2.619,0,0,1,.428,1.239,8.4,8.4,0,0,1,.005,1.667,14.892,14.892,0,0,1-.3,1.971,20.992,20.992,0,0,1-.566,2.065,20.4,20.4,0,0,1-.793,2.039,17.658,17.658,0,0,1-.983,1.868,11.7,11.7,0,0,1-1.144,1.582,4.532,4.532,0,0,1-2.7,1.716,2.761,2.761,0,0,1-.351.023c-.844,0-1.9-.427-2.145-2.459-.03-.25-.046-.525-.051-.822a10.363,10.363,0,0,1-3.182,3.412,4.372,4.372,0,0,1-1.763.639c-.017,0-.032,0-.049,0a15.517,15.517,0,0,0,28.79-7.749,14.943,14.943,0,0,0-.175-2.173C55.563,89.744,55.491,89.874,55.4,90ZM41.582,97.734a3.379,3.379,0,0,1-1.288.884,1.407,1.407,0,0,1-.515.1,1.269,1.269,0,0,1-.509-.1,1.217,1.217,0,0,1-.372-.25,1.031,1.031,0,0,1-.35-.764.889.889,0,0,1,.35-.737c.069-.053.136-.1.2-.147,2.1-2.021,3.5-8.316,3.645-11.013a1.779,1.779,0,0,1,.482-1.308,1.155,1.155,0,0,1,.784-.367.773.773,0,0,1,.139.013,2.738,2.738,0,0,1,.834.314,1.851,1.851,0,0,1,.978,1.613,17.666,17.666,0,0,1-.892,4.594C44.095,93.929,42.921,96.342,41.582,97.734Z" transform="translate(-24.858 -76.554)"/><path class="a" d="M25.485,92.551c.115-.47.253-.956.414-1.442s.324-.949.5-1.411.336-.9.5-1.321a7.461,7.461,0,0,0,.727-2.694c-.019-.161-.046-.217-.268-.217a1.19,1.19,0,0,0-.147.01,2.454,2.454,0,0,0-1.5,1.072,3.5,3.5,0,0,0-.289.436l-.183.346-.027-.01a15.189,15.189,0,0,0-.135,1.916,15.029,15.029,0,0,0,.4,3.4C25.478,92.605,25.479,92.578,25.485,92.551Z" transform="translate(-25.071 -74.001)"/></g><g transform="translate(65.986 86.482)"><path class="a" d="M62.473,94.734q-.635-1.443-1.284-2.881t-1.271-2.909c-.135-.306-.268-.618-.4-.93s-.256-.628-.376-.946-.243-.636-.368-.953c0,.107,0,.212-.008.318s-.006.212-.006.318c-.01.346-.022.763-.037,1.249s-.031,1.006-.05,1.559-.033,1.106-.044,1.66-.019,1.076-.028,1.566c-.009.212-.017.423-.022.636s-.017.409-.036.592l.542-.028.542-.03v.636H56.873v-.476a1.053,1.053,0,0,0,.656-.2.814.814,0,0,0,.268-.484,4.54,4.54,0,0,0,.072-.65l.274-6.582c.009-.193.017-.385.022-.578s.012-.38.022-.562c-.174.009-.346.017-.52.022s-.346.012-.52.021v-.62h2.208l2.483,5.73c.125.289.248.578.368.866s.246.578.376.866.257.583.383.881h.028q.158-.39.376-.93c.144-.363.264-.673.36-.933q.635-1.586,1.321-3.183t1.35-3.3h2.136v.476a1,1,0,0,0-.592.136.862.862,0,0,0-.332.5,2.968,2.968,0,0,0-.072.938l.376,6.568a4.066,4.066,0,0,1,.028.476V94c.174-.009.349-.018.527-.022s.354-.013.526-.022v.636H65.764v-.476a1,1,0,0,0,.664-.217.927.927,0,0,0,.268-.578,5.217,5.217,0,0,0,.022-.924l-.289-4.764c-.009-.153-.019-.307-.028-.461s-.019-.309-.028-.463-.021-.307-.03-.461c-.028.067-.06.139-.094.216s-.064.158-.094.244l-3.247,8.027Z" transform="translate(-56.873 -84.21)"/><path class="a" d="M75.643,94.871a5.489,5.489,0,0,1-2.352-.462,4.361,4.361,0,0,1-1.6-1.234,5.149,5.149,0,0,1-.9-1.711,6.329,6.329,0,0,1-.288-1.876,5.875,5.875,0,0,1,.3-1.84,5.347,5.347,0,0,1,.93-1.711,4.72,4.72,0,0,1,1.573-1.256,4.848,4.848,0,0,1,2.217-.477,5.117,5.117,0,0,1,2.294.477,4.611,4.611,0,0,1,1.6,1.262,5.533,5.533,0,0,1,.938,1.711,5.729,5.729,0,0,1,.311,1.833,5.881,5.881,0,0,1-.3,1.826,5.411,5.411,0,0,1-.931,1.718A4.686,4.686,0,0,1,77.867,94.4,4.851,4.851,0,0,1,75.643,94.871Zm.03-.592a3.07,3.07,0,0,0,1.558-.382,3.363,3.363,0,0,0,1.105-1.024A4.879,4.879,0,0,0,79,91.444a5.752,5.752,0,0,0,.224-1.581,6.59,6.59,0,0,0-.246-1.775,5.646,5.646,0,0,0-.722-1.6,3.892,3.892,0,0,0-1.176-1.162,2.938,2.938,0,0,0-1.6-.44,3.057,3.057,0,0,0-1.566.39A3.415,3.415,0,0,0,72.807,86.3a4.844,4.844,0,0,0-.663,1.429,5.75,5.75,0,0,0-.224,1.6,6.575,6.575,0,0,0,.224,1.66,5.841,5.841,0,0,0,.684,1.617A3.819,3.819,0,0,0,74,93.818,2.988,2.988,0,0,0,75.673,94.28Z" transform="translate(-52.967 -84.261)"/><path class="a" d="M88.544,87.6a3.6,3.6,0,0,0-.332-1.314,2.513,2.513,0,0,0-.838-1.01,2.359,2.359,0,0,0-1.4-.39,1.794,1.794,0,0,0-1.371.506,1.666,1.666,0,0,0-.476,1.184,1.523,1.523,0,0,0,.346,1.018,3.182,3.182,0,0,0,.9.72c.369.208.762.407,1.176.6q.548.245,1.1.526a5.86,5.86,0,0,1,1,.642,2.777,2.777,0,0,1,.714.859,2.491,2.491,0,0,1,.268,1.191,2.566,2.566,0,0,1-.4,1.414,2.676,2.676,0,0,1-1.148.974,4.286,4.286,0,0,1-1.833.354,5.087,5.087,0,0,1-1.342-.188,4.042,4.042,0,0,1-1.227-.548l.072.621H83l-.087-3.075h.564a2.53,2.53,0,0,0,.88,1.926,2.989,2.989,0,0,0,1.949.657,2.544,2.544,0,0,0,1.04-.21,1.765,1.765,0,0,0,.758-.612,1.857,1.857,0,0,0-.066-2.065,3.159,3.159,0,0,0-.894-.751c-.367-.211-.755-.413-1.169-.606q-.548-.245-1.082-.52a5.649,5.649,0,0,1-.975-.628,2.789,2.789,0,0,1-.708-.844,2.449,2.449,0,0,1-.266-1.184,2.784,2.784,0,0,1,.13-.808,2.337,2.337,0,0,1,1.35-1.481,3.617,3.617,0,0,1,1.451-.252,5.829,5.829,0,0,1,1.234.152,3.367,3.367,0,0,1,1.278.585l-.058-.621h.736V87.6Z" transform="translate(-49.411 -84.261)"/><path class="a" d="M91.924,94.651v-.476a.9.9,0,0,0,.664-.232,1.748,1.748,0,0,0,.382-.636q.152-.4.354-.938l2.974-8.1h.346l3.219,8.215q.116.3.26.778a2.23,2.23,0,0,1,.116.809l.49-.028.491-.03v.636H97.914v-.476a.91.91,0,0,0,.722-.246.715.715,0,0,0,.13-.549,2.519,2.519,0,0,0-.144-.576l-.506-1.357-3.753.086-.506,1.545c-.067.23-.127.413-.18.548s-.113.284-.18.448l.57-.028.556-.03v.636Zm2.657-3.74h3.333L96.89,88.155q-.16-.448-.325-.888t-.324-.888h-.03c-.1.269-.194.539-.3.808l-.31.823Z" transform="translate(-46.829 -84.271)"/><path class="a" d="M106.245,84.961a1.012,1.012,0,0,0-.742.246.972.972,0,0,0-.232.62q-.021.39-.021.91v6.134q0,.392-.008.672a3.866,3.866,0,0,1-.036.47l.52-.028.518-.03v.636H103v-.476a1.081,1.081,0,0,0,.751-.252.994.994,0,0,0,.224-.621c.014-.265.021-.565.021-.9V86.1c0-.192.005-.377.014-.556s.021-.338.03-.482l-.52.028-.52.028v-.634h3.247Z" transform="translate(-43.656 -84.21)"/><path class="a" d="M118.034,87.756a3.245,3.245,0,0,0-.946-2.107,2.89,2.89,0,0,0-2.057-.751,3.245,3.245,0,0,0-1.437.326,3.509,3.509,0,0,0-1.176.93,4.5,4.5,0,0,0-.794,1.459,5.946,5.946,0,0,0-.288,1.92,5.282,5.282,0,0,0,.52,2.4,4.035,4.035,0,0,0,1.4,1.616,3.479,3.479,0,0,0,1.948.578,4.334,4.334,0,0,0,1.849-.426,3.739,3.739,0,0,0,1.486-1.234l.376.3a5.068,5.068,0,0,1-1.343,1.314,4.6,4.6,0,0,1-1.436.628,5.814,5.814,0,0,1-1.306.166,4.972,4.972,0,0,1-1.985-.389,4.664,4.664,0,0,1-1.559-1.091,4.884,4.884,0,0,1-1.01-1.631,5.6,5.6,0,0,1-.354-2.013,6.469,6.469,0,0,1,.31-1.992,5.456,5.456,0,0,1,.931-1.747,4.5,4.5,0,0,1,1.566-1.242,4.968,4.968,0,0,1,2.2-.462,5.312,5.312,0,0,1,1.531.216,5.188,5.188,0,0,1,1.386.664l-.072-.778h.778v3.349Z" transform="translate(-41.672 -84.261)"/></g></g></svg>