<svg xmlns="http://www.w3.org/2000/svg" xmlns:xlink="http://www.w3.org/1999/xlink" width="31.441" height="58.5" viewBox="0 0 31.441 58.5"><defs><style>.a{fill:url(#a);}.b{fill:#f2f2f2;}.c{opacity:0.9;fill:url(#b);}.d{fill:#fff;}</style><linearGradient id="a" x1="0.5" y1="1.267" x2="0.5" y2="-0.138" gradientUnits="objectBoundingBox"><stop offset="0" stop-color="#307782"/><stop offset="1" stop-color="#65dcc9"/></linearGradient><linearGradient id="b" x1="0.5" y1="1" x2="0.5" gradientUnits="objectBoundingBox"><stop offset="0" stop-color="#30194b"/><stop offset="0.997" stop-color="#4a2e62"/><stop offset="1" stop-color="#f0fffd"/></linearGradient></defs><g transform="translate(-2121 -6342)"><rect class="a" width="31.441" height="58.5" rx="3" transform="translate(2121 6342)"/><rect class="b" width="8.07" height="1.082" rx="0.154" transform="translate(2132.675 6343.963)"/><rect class="c" width="24.866" height="46.998" rx="0.201" transform="translate(2124.277 6346.946)"/><rect class="b" width="4.097" height="4.097" rx="2.048" transform="translate(2134.723 6394.861)"/><g transform="translate(2127.35 6366.17)"><g transform="translate(5.917 0)"><path class="d" d="M785.035,293.5a8.338,8.338,0,0,0,.224-.814,5.887,5.887,0,0,0,.119-.776,3.354,3.354,0,0,0,0-.657,1.034,1.034,0,0,0-.169-.488.567.567,0,0,0-.189-.171.445.445,0,0,0-.216-.054h0a.6.6,0,0,0-.07,0,.531.531,0,0,0-.321.194l-.1.117.1.115a.916.916,0,0,1,.183.506,2.9,2.9,0,0,1-.074.929,5.009,5.009,0,0,1-.573,1.5c-.308.526-.527.66-.644.688a1.43,1.43,0,0,1-.138-.569,9.33,9.33,0,0,1,.017-2.089,1.906,1.906,0,0,0,.139-.518.542.542,0,0,0-.031-.268.273.273,0,0,0-.266-.166.492.492,0,0,0-.056,0,.637.637,0,0,0-.287.114.628.628,0,0,0-.152.14.647.647,0,0,0-.115.242q-.029.113-.129.526c-.065.269-.121.495-.169.673a7.409,7.409,0,0,1-.792,1.5c-.336.47-.5.534-.548.541a.258.258,0,0,1-.016-.07,4.359,4.359,0,0,1,.089-.7c.027-.171.054-.352.081-.544s.046-.389.054-.571a3.331,3.331,0,0,0-.019-.552,1.264,1.264,0,0,0-.164-.506.834.834,0,0,0-.763-.411,1.4,1.4,0,0,0-.183.013l-.015,0a1.535,1.535,0,0,0-.552.2,2.388,2.388,0,0,0-.259.172,1.642,1.642,0,0,0-.221.2.96.96,0,0,0-.158.232.527.527,0,0,0-.048.292c.016.136.121.243.31.317l.144.055.072-.136a1.27,1.27,0,0,1,.114-.172.964.964,0,0,1,.59-.422.446.446,0,0,1,.058,0c.087,0,.1.022.105.086a2.932,2.932,0,0,1-.286,1.061q-.1.252-.2.521c-.068.182-.134.369-.2.556s-.118.383-.163.569a4.567,4.567,0,0,0-.1.558,2.123,2.123,0,0,0-.008.48.967.967,0,0,0,.091.334.652.652,0,0,0,.61.38.939.939,0,0,0,.117-.007,1.736,1.736,0,0,0,.695-.252,4.091,4.091,0,0,0,1.253-1.344,3.213,3.213,0,0,0,.02.324c.1.8.513.969.845.969a1.1,1.1,0,0,0,.138-.009,1.784,1.784,0,0,0,1.065-.676,4.562,4.562,0,0,0,.45-.623,6.935,6.935,0,0,0,.387-.736A7.943,7.943,0,0,0,785.035,293.5Z" transform="translate(-778.6 -290.513)"/><path class="d" d="M793.654,290.672a1.1,1.1,0,0,0-.329-.123.289.289,0,0,0-.055-.005.457.457,0,0,0-.308.144.7.7,0,0,0-.19.516c-.055,1.062-.611,3.543-1.436,4.339l-.079.057a.352.352,0,0,0-.137.291.406.406,0,0,0,.138.3.474.474,0,0,0,.147.1.5.5,0,0,0,.2.041.552.552,0,0,0,.2-.039,1.332,1.332,0,0,0,.508-.348,9.584,9.584,0,0,0,1.724-4.635A.731.731,0,0,0,793.654,290.672Z" transform="translate(-785.332 -290.515)"/><path class="d" d="M801.09,290.9a1.118,1.118,0,0,0-.911-.415,2.3,2.3,0,0,0-1.4.556,4.3,4.3,0,0,0-1.152,1.425,4.806,4.806,0,0,0-.532,2.039l0,.1a1.8,1.8,0,0,0,.411,1.241,1.356,1.356,0,0,0,.5.347,1.976,1.976,0,0,0,.737.117,2.213,2.213,0,0,0,.919-.212,1.781,1.781,0,0,0,.349-.2,1.1,1.1,0,0,0,.221-.21.653.653,0,0,0,.094-.4.572.572,0,0,0-.1-.328.317.317,0,0,0-.269-.157.35.35,0,0,0-.221.085,2.532,2.532,0,0,1-1.1.572.114.114,0,0,1-.061-.011c-.216-.147-.251-.393-.251-.923l0-.125a3.678,3.678,0,0,1,.342-1.342,3.977,3.977,0,0,1,.765-1.191,1.247,1.247,0,0,1,.844-.475c.073,0,.094,0,.094.118a.549.549,0,0,1-.057.232,2.082,2.082,0,0,1-.682.755.38.38,0,0,0-.142.322.576.576,0,0,0,.182.389.762.762,0,0,0,.2.148.6.6,0,0,0,.274.065.64.64,0,0,0,.311-.089,1.563,1.563,0,0,0,.512-.467,1.882,1.882,0,0,0,.4-1.122A1.313,1.313,0,0,0,801.09,290.9Z" transform="translate(-788.542 -290.482)"/></g><g transform="translate(0 3.159)"><path class="d" d="M765.828,299.273v-.246a.223.223,0,0,0,.152-.042.2.2,0,0,0,.059-.12,1.058,1.058,0,0,0,.013-.176v-.638c0-.045,0-.1,0-.154s.006-.113.012-.169c-.041,0-.088,0-.142.006s-.1,0-.123.006v-.288a1.915,1.915,0,0,0,.3-.019,1,1,0,0,0,.192-.045.339.339,0,0,0,.1-.049h.186a.669.669,0,0,1,.009.095c0,.038,0,.07.006.095a1.1,1.1,0,0,1,.279-.155.8.8,0,0,1,.283-.057.6.6,0,0,1,.288.062.46.46,0,0,1,.182.188,1.173,1.173,0,0,1,.3-.182.83.83,0,0,1,.317-.068.59.59,0,0,1,.465.176.922.922,0,0,1,.158.613v.558q0,.053,0,.15c0,.065-.006.126-.011.184.041-.005.085-.008.135-.009l.111,0v.288h-.96v-.246a.169.169,0,0,0,.127-.042.208.208,0,0,0,.051-.12,1.179,1.179,0,0,0,.012-.176v-.581a.571.571,0,0,0-.082-.342.265.265,0,0,0-.207-.1.41.41,0,0,0-.185.034.741.741,0,0,0-.153.091,1.014,1.014,0,0,1,.027.167c.005.061.008.125.008.193v.509q0,.053,0,.15c0,.065-.006.126-.012.184.041-.005.085-.008.133-.009l.114,0v.288h-.979v-.246a.2.2,0,0,0,.142-.042.2.2,0,0,0,.055-.12,1.192,1.192,0,0,0,.012-.176l0-.592a.57.57,0,0,0-.072-.337.253.253,0,0,0-.2-.095.384.384,0,0,0-.177.042.678.678,0,0,0-.146.1v.857q0,.053,0,.15c0,.065-.006.126-.012.184.041-.005.082-.008.125-.009l.1,0v.288Z" transform="translate(-765.801 -297.316)"/><path class="d" d="M773.524,300.372a.362.362,0,0,1-.245-.086.28.28,0,0,1-.1-.226.27.27,0,0,1,.067-.18.228.228,0,0,1,.172-.081.182.182,0,0,1,.142.055.219.219,0,0,1,.059.161v.023a.1.1,0,0,1,0,.026.05.05,0,0,0,.019,0,.173.173,0,0,0,.074-.062.73.73,0,0,0,.078-.135c.027-.058.055-.123.081-.2a2.336,2.336,0,0,0,.071-.226l-.6-1.2a2.2,2.2,0,0,1-.139-.32,1.287,1.287,0,0,1-.044-.192l-.175.008v-.288h.944v.243c-.093.01-.144.046-.153.106a.327.327,0,0,0,.033.19l.371.85c.025-.066.058-.168.1-.306s.089-.288.144-.45c.01-.032.023-.071.04-.116s.035-.088.055-.133a.516.516,0,0,1,.064-.108l-.216.012v-.288h.675v.243a.318.318,0,0,0-.2.144,1.329,1.329,0,0,0-.139.288l-.474,1.354a5.033,5.033,0,0,1-.2.507.835.835,0,0,1-.212.294A.451.451,0,0,1,773.524,300.372Z" transform="translate(-769.662 -297.386)"/></g></g></g></svg>