<svg xmlns="http://www.w3.org/2000/svg" width="76.262" height="25" viewBox="0 0 76.262 25"><defs><style>.a{fill:#fff;}</style></defs><g transform="translate(-765.801 -290.482)"><g transform="translate(789.873 290.482)"><path class="a" d="M804.781,302.578a33.939,33.939,0,0,0,.911-3.31,24,24,0,0,0,.483-3.158,13.655,13.655,0,0,0-.007-2.675,4.212,4.212,0,0,0-.686-1.984,2.309,2.309,0,0,0-.767-.694,1.812,1.812,0,0,0-.88-.218h0a2.475,2.475,0,0,0-.284.019,2.158,2.158,0,0,0-1.307.79l-.419.474.425.468a3.723,3.723,0,0,1,.747,2.058,11.8,11.8,0,0,1-.3,3.779,20.392,20.392,0,0,1-2.33,6.086c-1.253,2.139-2.146,2.684-2.622,2.8a5.823,5.823,0,0,1-.562-2.315,37.969,37.969,0,0,1,.07-8.5,7.775,7.775,0,0,0,.566-2.106,2.209,2.209,0,0,0-.128-1.089,1.109,1.109,0,0,0-1.083-.677,2,2,0,0,0-.23.015,2.586,2.586,0,0,0-1.168.463,2.543,2.543,0,0,0-.617.57,2.625,2.625,0,0,0-.467.986q-.118.46-.523,2.138c-.263,1.093-.493,2.013-.686,2.738a30.121,30.121,0,0,1-3.22,6.109c-1.367,1.913-2.039,2.17-2.231,2.2a1.052,1.052,0,0,1-.064-.286,17.759,17.759,0,0,1,.361-2.855c.109-.7.218-1.431.329-2.214.113-.8.186-1.582.218-2.325a13.551,13.551,0,0,0-.079-2.244,5.146,5.146,0,0,0-.667-2.059,3.392,3.392,0,0,0-3.105-1.674,5.716,5.716,0,0,0-.745.051l-.06.008a6.243,6.243,0,0,0-2.244.813,9.731,9.731,0,0,0-1.053.7,6.744,6.744,0,0,0-.9.824,3.906,3.906,0,0,0-.641.944,2.142,2.142,0,0,0-.2,1.187c.066.555.491.989,1.262,1.288l.585.226.293-.553a5.16,5.16,0,0,1,.465-.7,3.92,3.92,0,0,1,2.4-1.717,1.8,1.8,0,0,1,.237-.017c.355,0,.4.09.429.348.041.352-.053,1.381-1.164,4.317q-.387,1.024-.8,2.12c-.276.739-.544,1.5-.8,2.261-.258.781-.482,1.559-.664,2.313a18.576,18.576,0,0,0-.4,2.272,8.639,8.639,0,0,0-.034,1.952,3.939,3.939,0,0,0,.37,1.358,2.652,2.652,0,0,0,2.483,1.548,3.805,3.805,0,0,0,.478-.03,7.061,7.061,0,0,0,2.827-1.025,16.643,16.643,0,0,0,5.1-5.469,13.116,13.116,0,0,0,.083,1.318c.391,3.256,2.086,3.94,3.438,3.94a4.489,4.489,0,0,0,.563-.038,7.261,7.261,0,0,0,4.335-2.752,18.543,18.543,0,0,0,1.832-2.535,28.114,28.114,0,0,0,1.576-2.994A32.259,32.259,0,0,0,804.781,302.578Z" transform="translate(-778.6 -290.432)"/><path class="a" d="M801.431,291.066a4.452,4.452,0,0,0-1.337-.5,1.174,1.174,0,0,0-.224-.021,1.861,1.861,0,0,0-1.255.587,2.856,2.856,0,0,0-.773,2.1c-.226,4.322-2.485,14.413-5.842,17.653-.1.073-.209.151-.322.233a1.432,1.432,0,0,0-.559,1.183,1.653,1.653,0,0,0,.561,1.224,1.93,1.93,0,0,0,.6.4,2.027,2.027,0,0,0,.815.166,2.246,2.246,0,0,0,.826-.16,5.419,5.419,0,0,0,2.065-1.416c2.146-2.231,4.027-6.1,5.588-11.5A28.272,28.272,0,0,0,803,293.654,2.973,2.973,0,0,0,801.431,291.066Z" transform="translate(-767.571 -290.428)"/><path class="a" d="M813.366,292.169a4.548,4.548,0,0,0-3.705-1.687,9.334,9.334,0,0,0-5.708,2.261,17.5,17.5,0,0,0-4.685,5.8,19.55,19.55,0,0,0-2.163,8.3l-.015.408a7.321,7.321,0,0,0,1.674,5.048,5.524,5.524,0,0,0,2.031,1.412,8.044,8.044,0,0,0,3,.478,9.007,9.007,0,0,0,3.741-.863,7.255,7.255,0,0,0,1.42-.831,4.484,4.484,0,0,0,.9-.856,2.66,2.66,0,0,0,.384-1.61,2.325,2.325,0,0,0-.4-1.334,1.287,1.287,0,0,0-1.093-.638,1.425,1.425,0,0,0-.9.344c-1.179.982-3.384,2.328-4.48,2.328a.462.462,0,0,1-.246-.045c-.88-.6-1.021-1.6-1.021-3.754l.013-.51a14.971,14.971,0,0,1,1.39-5.46,16.186,16.186,0,0,1,3.111-4.847,5.074,5.074,0,0,1,3.434-1.933c.3,0,.384,0,.384.48a2.233,2.233,0,0,1-.231.944,8.468,8.468,0,0,1-2.776,3.073,1.547,1.547,0,0,0-.577,1.311,2.342,2.342,0,0,0,.741,1.582,3.1,3.1,0,0,0,.818.6,2.42,2.42,0,0,0,1.115.265,2.6,2.6,0,0,0,1.266-.363,6.355,6.355,0,0,0,2.084-1.9,7.654,7.654,0,0,0,1.636-4.563A5.345,5.345,0,0,0,813.366,292.169Z" transform="translate(-762.314 -290.482)"/></g><g transform="translate(765.801 303.336)"><path class="a" d="M765.908,305.279v-1a.906.906,0,0,0,.617-.169.82.82,0,0,0,.239-.487,4.3,4.3,0,0,0,.055-.717V300.31c0-.184.006-.393.015-.624s.026-.461.047-.688c-.166.011-.359.019-.579.024s-.389.013-.5.023v-1.174a7.79,7.79,0,0,0,1.2-.077,4.063,4.063,0,0,0,.781-.184,1.384,1.384,0,0,0,.393-.2h.758a2.75,2.75,0,0,1,.038.386c0,.154.013.284.023.386a4.48,4.48,0,0,1,1.134-.632,3.248,3.248,0,0,1,1.151-.231,2.422,2.422,0,0,1,1.174.254,1.869,1.869,0,0,1,.739.764,4.776,4.776,0,0,1,1.228-.741,3.377,3.377,0,0,1,1.288-.276,2.4,2.4,0,0,1,1.89.717,3.752,3.752,0,0,1,.641,2.492v2.27q0,.217-.017.609c-.009.263-.026.512-.045.749.166-.021.346-.032.549-.038s.35-.008.453-.008v1.172h-3.9v-1a.687.687,0,0,0,.517-.169.846.846,0,0,0,.207-.487,4.8,4.8,0,0,0,.049-.717v-2.362a2.325,2.325,0,0,0-.333-1.39,1.08,1.08,0,0,0-.841-.4,1.67,1.67,0,0,0-.75.139,3.009,3.009,0,0,0-.624.371,4.146,4.146,0,0,1,.109.679c.021.246.032.508.032.786v2.069q0,.217-.017.609c-.009.263-.026.512-.047.749.166-.021.346-.032.542-.038s.35-.008.463-.008v1.172H770.6v-1a.816.816,0,0,0,.579-.169.8.8,0,0,0,.224-.487,4.81,4.81,0,0,0,.047-.717l-.015-2.409a2.317,2.317,0,0,0-.293-1.373,1.028,1.028,0,0,0-.818-.386,1.561,1.561,0,0,0-.719.169,2.758,2.758,0,0,0-.592.4v3.487q0,.217-.017.609c-.009.263-.026.512-.047.749.166-.021.335-.032.51-.038s.314-.008.418-.008v1.172Z" transform="translate(-765.801 -297.316)"/><path class="a" d="M775.189,309.347a1.473,1.473,0,0,1-1-.348,1.138,1.138,0,0,1-.41-.918,1.1,1.1,0,0,1,.271-.734.927.927,0,0,1,.7-.331.739.739,0,0,1,.579.224.892.892,0,0,1,.239.656v.092a.422.422,0,0,1-.017.107.209.209,0,0,0,.077-.015.7.7,0,0,0,.3-.254,2.945,2.945,0,0,0,.318-.547c.111-.237.222-.5.329-.8a9.486,9.486,0,0,0,.288-.918l-2.439-4.894a8.987,8.987,0,0,1-.564-1.3,5.243,5.243,0,0,1-.177-.781l-.711.032v-1.174h3.842v.987c-.38.041-.587.186-.624.433a1.333,1.333,0,0,0,.133.771l1.51,3.459c.1-.267.237-.683.4-1.243s.361-1.17.587-1.83c.04-.132.094-.29.162-.47s.141-.359.224-.54a2.09,2.09,0,0,1,.261-.44l-.878.047v-1.174h2.748v.987a1.292,1.292,0,0,0-.8.587,5.41,5.41,0,0,0-.564,1.174l-1.928,5.509a20.487,20.487,0,0,1-.82,2.061,3.4,3.4,0,0,1-.863,1.2A1.834,1.834,0,0,1,775.189,309.347Z" transform="translate(-759.477 -297.201)"/></g></g></svg>