<svg xmlns="http://www.w3.org/2000/svg" xmlns:xlink="http://www.w3.org/1999/xlink" width="43" height="43" viewBox="0 0 43 43"><defs><style>.a{fill:#f78d1e;}.b{fill:#fcd116;}.c{fill:url(#a);}.d{fill:#0078d4;}.e{fill:url(#b);}.f{fill:#dfa500;}.g{fill:#f2f2f2;}.h{fill:#d15900;}</style><linearGradient id="a" x1="0.325" y1="0.191" x2="0.798" y2="0.681" gradientUnits="objectBoundingBox"><stop offset="0" stop-color="#dfa500"/><stop offset="0.28" stop-color="#efb700"/><stop offset="0.51" stop-color="#ffca00"/><stop offset="1" stop-color="#e1a800"/></linearGradient><linearGradient id="b" x1="0.888" y1="0.118" x2="-0.168" y2="1.144" gradientUnits="objectBoundingBox"><stop offset="0" stop-color="#faa21d"/><stop offset="0.24" stop-color="#f99d1a"/><stop offset="0.51" stop-color="#f69012"/><stop offset="0.8" stop-color="#f17905"/><stop offset="0.88" stop-color="#ef7100"/></linearGradient></defs><g transform="translate(-0.259 -0.262)"><path class="a" d="M8.892,16.733a13.924,13.924,0,0,0-7.38-2.8.689.689,0,0,1-.664-1.009A13.162,13.162,0,0,1,4.562,8.713,11.981,11.981,0,0,1,15.387,6.621a4.108,4.108,0,0,1,1.525.664Z" transform="translate(0.742 8.569)"/><path class="a" d="M7.7,18.82l9.447-8.02a4.477,4.477,0,0,1,.664,1.55A12.079,12.079,0,0,1,15.7,23.174a12.817,12.817,0,0,1-4.207,3.641.689.689,0,0,1-1.009-.763A14.1,14.1,0,0,0,7.7,18.82Z" transform="translate(10.864 15.387)"/><path class="b" d="M36.916.282A59.707,59.707,0,0,0,4,24.981l9.078,9.078a59.707,59.707,0,0,0,24.7-32.916.713.713,0,0,0-.861-.861Z" transform="translate(5.462 0)"/><path class="c" d="M36.916.282A59.707,59.707,0,0,0,4,24.981l9.078,9.078a59.707,59.707,0,0,0,24.7-32.916.713.713,0,0,0-.861-.861Z" transform="translate(5.462 0)"/><path class="d" d="M23.877.282a54.123,54.123,0,0,0-10.947,4.5l7.38,7.38A54.122,54.122,0,0,0,24.739,1.143a.713.713,0,0,0-.861-.861Z" transform="translate(18.501 0)"/><path class="e" d="M.261,27.851a25.388,25.388,0,0,1,9.2-17.541l9.078,9.078A25.388,25.388,0,0,1,1,28.589a.689.689,0,0,1-.738-.738Z" transform="translate(0 14.671)"/><circle class="f" cx="4.699" cy="4.699" r="4.699" transform="translate(23.017 11.106)"/><circle class="g" cx="3.518" cy="3.518" r="3.518" transform="translate(24.198 12.287)"/><path class="h" d="M7.1,19.941A7.38,7.38,0,0,1,3.83,21.393a8.118,8.118,0,0,1,1.427-3.3L14.089,9.24l1.845,1.845Z" transform="translate(5.214 13.109)"/></g></svg>